<?xml version="1.0" standalone="no"?>
<!DOCTYPE svg PUBLIC "-//W3C//DTD SVG 20010904//EN"
 "http://www.w3.org/TR/2001/REC-SVG-20010904/DTD/svg10.dtd">
<svg version="1.0" xmlns="http://www.w3.org/2000/svg"
 width="80.000000pt" height="80.000000pt" viewBox="0 0 160.000000 160.000000"
 preserveAspectRatio="xMidYMid meet">

<g transform="translate(4.000000,150.000000) scale(0.100000,-0.10000)"
fill="#fff" stroke="none">
<path d="M90 1273 c-8 -3 -26 -15 -38 -27 -52 -46 -52 -49 -52 -441 0 -407 1
-416 65 -455 30 -19 49 -20 284 -20 l253 0 194 -160 c106 -88 196 -160 199
-160 3 0 5 72 5 160 l0 160 91 0 c74 0 98 4 124 20 64 39 65 48 65 455 0 395
0 394 -55 445 l-27 25 -546 2 c-301 1 -554 -1 -562 -4z m1092 -90 c17 -15 18
-40 18 -376 0 -321 -2 -362 -17 -379 -14 -16 -33 -18 -140 -18 l-123 0 0 -115
c0 -63 -3 -115 -6 -115 -3 0 -68 52 -144 115 l-139 115 -257 0 c-226 0 -260 2
-276 17 -17 15 -18 40 -18 376 0 321 2 362 17 379 15 17 45 18 541 18 475 0
527 -2 544 -17z"/>
<path d="M200 1010 l0 -40 440 0 440 0 0 40 0 40 -440 0 -440 0 0 -40z"/>
<path d="M200 810 l0 -40 360 0 360 0 0 40 0 40 -360 0 -360 0 0 -40z"/>
<path d="M200 610 l0 -40 280 0 280 0 0 40 0 40 -280 0 -280 0 0 -40z"/>
</g>
</svg>
